PathFileType	4	(X/Y/Z)	./resultDataOpenSim/trcMotMarkerGrf/sub06/qtm-04-05.trc
DataRate	CameraRate	NumFrames	NumMarkers	Units	OrigDataRate	OrigDataStartFrame	OrigNumFrames
250.000000	250.000000	12	24	m	250.000000	464	530
Frame#	Time	L.Toe.Tip			R.Toe.Tip			L.Ankle.Lat			R.Ankle.Lat			L.Ankle.Med			R.Ankle.Med			L.Heel			R.Heel			L.Knee.Lat			R.Knee.Lat			L.Knee.Med			R.Knee.Med			L.Thigh.Upper			R.Thigh.Upper			L.ASIS			R.ASIS			V.Sacral			L.Acromium			R.Acromium			C7			L.Elbow			R.Elbow			L.Wrist.Lat			R.Wrist.Lat
		X1	Y1	Z1	X2	Y2	Z2	X3	Y3	Z3	X4	Y4	Z4	X5	Y5	Z5	X6	Y6	Z6	X7	Y7	Z7	X8	Y8	Z8	X9	Y9	Z9	X10	Y10	Z10	X11	Y11	Z11	X12	Y12	Z12	X13	Y13	Z13	X14	Y14	Z14	X15	Y15	Z15	X16	Y16	Z16	X17	Y17	Z17	X18	Y18	Z18	X19	Y19	Z19	X20	Y20	Z20	X21	Y21	Z21	X22	Y22	Z22	X23	Y23	Z23	X24	Y24	Z24

464	1.852	1.698088	0.034194326	-0.056916895	1.2140413	0.084933226	0.12807799	1.5731855	0.066687517	-0.081003725	1.1866204	0.22067816	0.15228846	1.5748493	0.080349817	0.0060966835	1.2245549	0.21186329	0.072238567	1.4972076	0.039499945	-0.038151639	1.1524127	0.25831281	0.08934801	1.6422589	0.43572039	-0.09541745	1.5217738	0.40273774	0.1823701	1.6135402	0.43210514	0.02208511	1.5183762	0.38330008	0.047920787	1.5158975	0.81378801	-0.1621079	1.4653051	0.76484511	0.17911444	1.5781506	0.85140177	-0.10739684	1.5621025	0.82928921	0.13683811	1.3816666	0.91544453	0.01582922	1.4863253	1.3147628	-0.17971335	1.4999869	1.3213895	0.18531321	1.4110219	1.3529981	0.003729091	1.4270435	1.0042924	-0.2273746	1.4704407	0.9972088	0.25175872	1.547828	0.79830157	-0.28469531	1.6731965	0.85760592	0.21844106
465	1.856	1.6980907	0.034204764	-0.056873823	1.2304909	0.085001774	0.12897518	1.5731942	0.066746618	-0.081011679	1.2003239	0.22007653	0.15195572	1.5748591	0.080426328	0.0061297362	1.2387085	0.21150852	0.07249371	1.4971953	0.039581417	-0.038278031	1.1651971	0.25687353	0.089220841	1.6437814	0.43557443	-0.095094214	1.5330826	0.40546019	0.18236215	1.6147866	0.43213605	0.022276654	1.5306774	0.38562144	0.047865099	1.5205702	0.81458867	-0.16224904	1.4748462	0.76624462	0.17754128	1.5834067	0.8525529	-0.10785557	1.5674483	0.83097152	0.13666153	1.3871529	0.91704749	0.015335887	1.4924218	1.316621	-0.17982923	1.5051422	1.3230506	0.18520282	1.416802	1.3546448	0.0033753399	1.4355435	1.0052983	-0.22824356	1.4743493	0.99917033	0.25116593	1.5601705	0.80121651	-0.28444546	1.6744841	0.85639692	0.22052625
466	1.86	1.6980969	0.034210603	-0.056826631	1.2469799	0.084889783	0.12993577	1.5732175	0.066812322	-0.080985728	1.2143956	0.21914513	0.15169054	1.574858	0.0805057	0.006165021	1.2529126	0.21091228	0.072612956	1.4971997	0.03967615	-0.038318827	1.178213	0.25516886	0.088732175	1.6452696	0.43544424	-0.094751776	1.5442696	0.40827469	0.18233381	1.6157791	0.4321229	0.02245746	1.5428334	0.38803551	0.047761555	1.5254921	0.81540513	-0.16239882	1.4850661	0.767542	0.17587235	1.5886063	0.85372015	-0.10831967	1.5727598	0.83266151	0.13646252	1.392701	0.91858077	0.014847368	1.498508	1.3184703	-0.17992718	1.5103214	1.3247237	0.18510376	1.4225797	1.356275	0.0030401025	1.4440361	1.0063381	-0.22909147	1.4781903	1.0011823	0.25056216	1.5725078	0.80422185	-0.28416179	1.6757026	0.85528583	0.2226436
467	1.864	1.6981031	0.034211295	-0.056779369	1.2635492	0.084618696	0.13094558	1.5732464	0.066878555	-0.080930564	1.2288776	0.21787976	0.15149806	1.574871	0.080589343	0.0062021382	1.2670201	0.21010168	0.072367521	1.4972123	0.039779087	-0.038258034	1.1914009	0.25314545	0.087975341	1.6467217	0.43532571	-0.094402099	1.555374	0.41116808	0.18228956	1.616613	0.4320751	0.022658947	1.5547839	0.39051146	0.047625777	1.5305236	0.81623143	-0.16256248	1.4942783	0.76900004	0.17472107	1.5937956	0.85489451	-0.10878094	1.5780748	0.83438621	0.13624166	1.3982644	0.9200901	0.014422263	1.5045851	1.3203014	-0.18000664	1.5155172	1.3263824	0.18500661	1.4283416	1.3578757	0.0027204263	1.4525241	1.0074106	-0.22991422	1.4817208	1.0032545	0.25001703	1.5849374	0.80731481	-0.28383003	1.6768474	0.854271	0.22478742
468	1.868	1.6981083	0.03420897	-0.056733403	1.2802521	0.084219551	0.131977	1.5732705	0.066942947	-0.080861712	1.243595	0.21637133	0.15131625	1.574943	0.080681519	0.0062401508	1.2810414	0.20909378	0.071789836	1.497219	0.039883644	-0.038151376	1.2047166	0.25079163	0.087040058	1.6481302	0.43521272	-0.094053472	1.5664328	0.41412658	0.18222936	1.6174381	0.43200659	0.022921722	1.5665935	0.3930542	0.047470673	1.5354826	0.81706826	-0.16273952	1.5016458	0.77076905	0.17432886	1.5989992	0.85606857	-0.10922877	1.5834376	0.83616893	0.13600181	1.4038077	0.92159726	0.014084133	1.5106788	1.3221287	-0.18007725	1.5207109	1.3280005	0.18489869	1.4340795	1.3594419	0.0024152476	1.4610039	1.0085173	-0.23071114	1.4848787	1.0053687	0.24958335	1.5975567	0.81050346	-0.2834321	1.6779181	0.85335035	0.22694998
469	1.872	1.6981123	0.034207018	-0.056687622	1.2971244	0.083721283	0.1330033	1.5732888	0.067008476	-0.080790374	1.2582905	0.21473626	0.15106792	1.5751047	0.080786075	0.0062769839	1.2951006	0.20789697	0.07110099	1.4972127	0.039990817	-0.038052849	1.2181357	0.24815324	0.085984092	1.6494918	0.4351	-0.093709864	1.5774567	0.41713874	0.18215192	1.6183841	0.43193066	0.023262274	1.5783537	0.39568706	0.04730073	1.54038	0.81791388	-0.16291231	1.507527	0.7728023	0.17448903	1.6042193	0.85724105	-0.10965611	1.5888823	0.83801475	0.13574675	1.4093231	0.92309879	0.013817534	1.5168323	1.3239903	-0.18015767	1.5258899	1.3295712	0.18477721	1.4397945	1.360971	0.0021244048	1.4694679	1.0096558	-0.231484	1.4877735	1.0074718	0.24925949	1.6102954	0.81380735	-0.28296737	1.6789248	0.85252245	0.22912084
470	1.876	1.6981144	0.03420686	-0.05664108	1.3141704	0.083142407	0.13401335	1.5733068	0.067079461	-0.080721743	1.2728257	0.21302034	0.15073942	1.5752901	0.080897059	0.0063167742	1.3093079	0.2065241	0.070497502	1.4971981	0.040107072	-0.037973564	1.2316364	0.24527321	0.084875501	1.6508106	0.4349813	-0.093372435	1.5884293	0.42019545	0.18205385	1.6195402	0.4318692	0.023657812	1.5900048	0.39844153	0.047136574	1.5453347	0.8187469	-0.16304989	1.5127834	0.77496134	0.17484423	1.6094458	0.8584134	-0.11005943	1.594415	0.83991044	0.13548145	1.4148119	0.9245899	0.013593317	1.5230701	1.3259247	-0.18026058	1.5310617	1.3310993	0.18464498	1.4454952	1.362466	0.0018451095	1.477913	1.0108204	-0.23223734	1.4905993	1.0095155	0.24900075	1.6228395	0.81724831	-0.28246905	1.6798811	0.85178612	0.23128981
471	1.88	1.6981146	0.034206607	-0.056594769	1.3313809	0.082489516	0.13500973	1.573328	0.067158061	-0.080658923	1.2872077	0.21120152	0.15036543	1.5752223	0.080983776	0.0063853586	1.3237017	0.20498962	0.070049135	1.4971866	0.040239876	-0.037903952	1.2452081	0.24214802	0.083792768	1.6520869	0.43485243	-0.093041387	1.5993333	0.42328633	0.18193209	1.6208557	0.43183987	0.024044022	1.6014223	0.40134836	0.047006892	1.5503699	0.81954397	-0.16313887	1.5181925	0.77714256	0.17513443	1.6146728	0.85958641	-0.1104348	1.6000184	0.84183577	0.13521095	1.4202764	0.92605876	0.013386493	1.5293582	1.327924	-0.1803757	1.53624	1.3325895	0.18450312	1.4511926	1.3639372	0.0015689402	1.4863384	1.0120064	-0.23297321	1.4935269	1.0115052	0.24875341	1.6349132	0.82082646	-0.28197537	1.6807936	0.85113447	0.233451
472	1.884	1.6981156	0.034203864	-0.056550742	1.3487702	0.081770383	0.13599884	1.5733524	0.067244052	-0.080604078	1.3015104	0.2092465	0.14996922	1.5744278	0.080990836	0.0065368228	1.3382666	0.20330259	0.069726723	1.4971892	0.040390845	-0.037840518	1.2588617	0.23876479	0.082784534	1.6533141	0.43471573	-0.092715908	1.6101562	0.42639636	0.18178788	1.6220866	0.43183448	0.024336113	1.6126769	0.40443276	0.046916956	1.5554136	0.82030086	-0.16319177	1.5245021	0.77927806	0.17524434	1.6198986	0.8607601	-0.11078008	1.6056745	0.8437749	0.13493743	1.4257251	0.92748496	0.01318371	1.5356231	1.3299144	-0.18047831	1.5414265	1.3340429	0.18435173	1.4568884	1.3653864	0.001287251	1.4947309	1.0132093	-0.23367934	1.4966205	1.0134803	0.24848125	1.6466184	0.82450622	-0.28148315	1.6816623	0.85055262	0.23560418
473	1.888	1.6981216	0.034198479	-0.056510117	1.3663737	0.081003771	0.13698605	1.5733792	0.067335039	-0.080556322	1.3158144	0.20713881	0.14955912	1.5726708	0.0808902	0.0068123349	1.3529664	0.20146859	0.069468851	1.4972113	0.040552561	-0.037787149	1.2726121	0.23513982	0.081852287	1.6544862	0.43457574	-0.092396826	1.6208716	0.42950522	0.18162391	1.6229823	0.4318277	0.024498171	1.6240017	0.40771216	0.046847101	1.5603828	0.82102036	-0.16323126	1.5322212	0.7813052	0.1751958	1.6251182	0.86193151	-0.11109771	1.6113696	0.84572124	0.13466035	1.4311721	0.92886279	0.012984384	1.5418219	1.3318123	-0.18055416	1.5466173	1.335456	0.18419426	1.462572	1.3667937	0.0010011191	1.5030605	1.0144224	-0.23432814	1.4997703	1.0154536	0.2481792	1.6582986	0.8282379	-0.28095285	1.6824918	0.85002494	0.23775184
474	1.892	1.6981349	0.034191194	-0.056472793	1.3841942	0.080206132	0.1379676	1.5734081	0.067427461	-0.080510037	1.33018	0.20487425	0.14914828	1.5704955	0.08074884	0.0071685152	1.3677689	0.19949211	0.069227972	1.4972512	0.040717601	-0.03774191	1.2864656	0.23129568	0.080972357	1.6556011	0.4344328	-0.092092358	1.6314535	0.43259446	0.18144074	1.6235189	0.43180902	0.024612239	1.6355259	0.41118514	0.046763108	1.5652014	0.82170309	-0.16327965	1.5405663	0.78325348	0.17516532	1.6303243	0.86309253	-0.1113929	1.6170825	0.8476749	0.13437786	1.4366378	0.9302039	0.012792883	1.5479653	1.3335902	-0.18060283	1.5518169	1.336821	0.18403657	1.4682329	1.3681383	0.00071834511	1.5113097	1.0156336	-0.23490568	1.5027283	1.0173879	0.24786722	1.6701855	0.83198938	-0.2803484	1.6832947	0.84954429	0.23989284
475	1.896	1.6981542	0.034181715	-0.05643808	1.4022136	0.07938525	0.13892782	1.573441	0.067519871	-0.080457284	1.3446388	0.2024531	0.14874983	1.5688691	0.080687819	0.0074907328	1.3826551	0.19738004	0.068977614	1.4973016	0.040890198	-0.037690705	1.3004207	0.22723336	0.080135642	1.6566619	0.43428413	-0.091813551	1.6419083	0.43565625	0.18123828	1.6238656	0.43181358	0.024830615	1.6470906	0.41484174	0.046622308	1.5698935	0.82236324	-0.16334112	1.5473934	0.78529556	0.1753904	1.6355205	0.86423174	-0.11166896	1.6227887	0.84963646	0.13408658	1.442156	0.93151482	0.012608	1.5540783	1.3352748	-0.18062651	1.5570303	1.338131	0.18388184	1.4738726	1.3694184	0.00044395386	1.5195174	1.0168269	-0.23544563	1.5053877	1.0192294	0.24757681	1.6823493	0.83574807	-0.2796555	1.684082	0.84911134	0.24201877
